<?xml version="1.0" encoding="UTF-8" standalone="no"?>
<svg
   version="1.1"
   viewBox="0.00 0.00 1356.00 439.00"
   id="svg2"
   sodipodi:docname="cloud_gradient.svg"
   inkscape:version="1.3 (0e150ed6c4, 2023-07-21)"
   xml:space="preserve"
   xmlns:inkscape="http://www.inkscape.org/namespaces/inkscape"
   xmlns:sodipodi="http://sodipodi.sourceforge.net/DTD/sodipodi-0.dtd"
   xmlns:xlink="http://www.w3.org/1999/xlink"
   xmlns="http://www.w3.org/2000/svg"
   xmlns:svg="http://www.w3.org/2000/svg"><defs
     id="defs2"><linearGradient
       inkscape:collect="always"
       xlink:href="#linearGradient2043"
       id="linearGradient2"
       x1="0"
       y1="219.5"
       x2="1356"
       y2="219.5"
       gradientUnits="userSpaceOnUse" /><linearGradient
       inkscape:collect="always"
       id="linearGradient2043"><stop
         style="stop-color:#fc8701;stop-opacity:1;"
         offset="0"
         id="stop2039" /><stop
         style="stop-color:#dd215d;stop-opacity:1;"
         offset="1"
         id="stop2041" /></linearGradient></defs><sodipodi:namedview
     id="namedview2"
     pagecolor="#ffffff"
     bordercolor="#666666"
     borderopacity="1.0"
     inkscape:showpageshadow="2"
     inkscape:pageopacity="0.0"
     inkscape:pagecheckerboard="0"
     inkscape:deskcolor="#d1d1d1"
     inkscape:zoom="0.90707965"
     inkscape:cx="678"
     inkscape:cy="219.38536"
     inkscape:window-width="1366"
     inkscape:window-height="715"
     inkscape:window-x="0"
     inkscape:window-y="27"
     inkscape:window-maximized="1"
     inkscape:current-layer="svg2" /><g
     id="g1"
     style="fill:url(#linearGradient2)"><path
       fill="#47704c"
       d="   M 680.57 0.00   L 693.06 0.00   Q 750.77 4.21 786.29 47.57   C 792.20 54.78 797.32 63.45 801.94 71.82   A 0.98 0.98 0.0 0 1 801.52 73.17   Q 772.90 87.61 754.21 113.96   Q 752.85 115.87 752.28 117.18   A 0.34 0.34 0.0 0 0 752.82 117.57   Q 755.67 114.95 758.61 112.31   Q 797.66 77.32 849.29 80.94   C 908.34 85.08 954.88 132.98 958.65 191.76   Q 961.85 241.74 928.16 279.56   Q 928.07 279.67 927.57 280.07   Q 927.45 280.17 927.28 280.34   A 0.62 0.40 -9.1 0 0 928.23 280.76   C 947.99 264.96 963.27 245.31 971.13 221.03   Q 971.32 220.46 971.91 220.47   Q 973.19 220.49 975.56 220.72   Q 1004.09 223.43 1028.22 231.80   C 1058.14 242.17 1088.15 261.32 1103.78 289.18   A 1.32 1.31 -19.8 0 0 1105.18 289.83   C 1171.13 277.27 1217.33 345.33 1180.96 402.09   A 0.43 0.43 0.0 0 0 1181.28 402.75   C 1228.60 407.89 1276.09 414.02 1322.77 423.45   C 1332.17 425.35 1340.14 427.62 1348.99 430.52   Q 1353.30 431.93 1356.00 434.79   L 1356.00 437.30   Q 1355.54 438.70 1353.94 439.00   L 4.94 439.00   Q 1.99 438.73 0.00 437.58   L 0.00 434.44   C 8.40 427.92 24.88 425.12 36.53 422.88   Q 77.69 414.96 119.28 409.74   Q 123.34 409.23 126.94 408.55   A 0.57 0.57 0.0 0 0 126.87 407.42   C 112.75 406.49 96.61 404.84 83.56 399.68   Q 81.49 398.86 80.75 396.47   C 77.01 384.48 188.28 380.17 198.20 379.84   A 0.71 0.70 83.1 0 0 198.86 378.99   C 193.90 354.97 197.68 332.25 213.91 313.40   Q 233.87 290.22 265.53 288.20   C 272.74 287.74 280.07 288.84 287.23 290.27   Q 288.23 290.47 288.73 289.58   C 305.76 259.11 338.38 240.80 372.02 232.28   Q 374.32 231.70 375.17 232.79   C 390.95 252.81 408.22 260.64 433.65 258.90   Q 434.87 258.82 433.70 258.46   Q 432.60 258.12 430.23 257.55   C 389.23 247.85 370.75 200.30 393.93 164.94   Q 401.29 153.70 411.63 147.19   C 433.28 133.55 462.41 134.29 482.65 150.27   Q 483.03 150.57 483.42 150.30   Q 517.80 126.60 559.43 121.58   Q 559.98 121.51 559.98 120.95   C 559.99 119.04 559.62 117.11 559.81 115.30   C 566.59 51.22 616.39 4.20 680.57 0.00   Z"
       id="path1"
       style="fill:url(#linearGradient2);fill-opacity:1" /><circle
       fill="#47704c"
       cx="457.31"
       cy="88.30"
       r="23.25"
       id="circle1"
       style="fill:url(#linearGradient2);fill-opacity:1" /><path
       fill="#47704c"
       d="   M 507.05 100.39   C 499.63 82.88 517.23 67.70 533.80 76.50   C 550.88 85.58 542.89 112.53 523.07 111.41   Q 511.45 110.75 507.05 100.39   Z"
       id="path2"
       style="fill:url(#linearGradient2);fill-opacity:1" /><circle
       fill="#47704c"
       cx="1260.86"
       cy="323.34"
       r="38.14"
       id="circle2"
       style="fill:url(#linearGradient2);fill-opacity:1" /></g></svg>
