<?xml version="1.0" encoding="UTF-8" standalone="no"?>
<!-- Created with Inkscape (http://www.inkscape.org/) -->

<svg
   width="500"
   height="500.1969"
   viewBox="0 0 132.29166 132.34377"
   version="1.1"
   id="svg5"
   xml:space="preserve"
   inkscape:version="1.3 (0e150ed6c4, 2023-07-21)"
   sodipodi:docname="favicon.svg"
   xmlns:inkscape="http://www.inkscape.org/namespaces/inkscape"
   xmlns:sodipodi="http://sodipodi.sourceforge.net/DTD/sodipodi-0.dtd"
   xmlns:xlink="http://www.w3.org/1999/xlink"
   xmlns="http://www.w3.org/2000/svg"
   xmlns:svg="http://www.w3.org/2000/svg"><sodipodi:namedview
     id="namedview7"
     pagecolor="#ffffff"
     bordercolor="#666666"
     borderopacity="1.0"
     inkscape:showpageshadow="2"
     inkscape:pageopacity="0.0"
     inkscape:pagecheckerboard="0"
     inkscape:deskcolor="#d1d1d1"
     inkscape:document-units="px"
     showgrid="false"
     inkscape:zoom="0.9"
     inkscape:cx="233.33333"
     inkscape:cy="251.11111"
     inkscape:window-width="1366"
     inkscape:window-height="715"
     inkscape:window-x="0"
     inkscape:window-y="27"
     inkscape:window-maximized="1"
     inkscape:current-layer="layer1" /><defs
     id="defs2"><linearGradient
       inkscape:collect="always"
       id="linearGradient2043"><stop
         style="stop-color:#fc8701;stop-opacity:1;"
         offset="0"
         id="stop2039" /><stop
         style="stop-color:#dd215d;stop-opacity:1;"
         offset="1"
         id="stop2041" /></linearGradient><linearGradient
       inkscape:collect="always"
       xlink:href="#linearGradient2043"
       id="linearGradient1996"
       x1="-39.922775"
       y1="50.270836"
       x2="22.395424"
       y2="50.270836"
       gradientUnits="userSpaceOnUse" /><linearGradient
       inkscape:collect="always"
       xlink:href="#linearGradient2043"
       id="linearGradient1"
       gradientUnits="userSpaceOnUse"
       x1="-39.922775"
       y1="50.270836"
       x2="22.395424"
       y2="50.270836" /><linearGradient
       inkscape:collect="always"
       xlink:href="#linearGradient2043"
       id="linearGradient2"
       gradientUnits="userSpaceOnUse"
       x1="-39.922775"
       y1="50.270836"
       x2="22.395424"
       y2="50.270836" /></defs><g
     inkscape:label="Capa 1"
     inkscape:groupmode="layer"
     id="layer1"
     transform="translate(-0.16183578,-17.319334)"><g
       id="g2115"
       transform="matrix(2.1228415,0,0,2.1228415,84.911562,-23.225804)"
       style="fill:url(#linearGradient1996);fill-opacity:1"><path
         fill="#391561"
         d="m -15.874707,37.142311 4.096175,15.588876 a 0.71780616,0.70220169 89.2 0 0 0.507146,0.507146 l 3.9011204,0.983082 q 0.4213221,0.101429 0.4837398,0.530552 l 0.31989,1.989574 q 0.078026,0.499342 -0.4135151,0.366702 L -13.401397,55.39175 q -0.421322,-0.117031 -0.530555,-0.538353 -2.551333,-9.581152 -5.079257,-19.060874 -0.483737,-1.817922 0.803633,-3.042873 6.990807,-6.663115 13.856778,-13.451065 0.2886825,-0.273078 0.6709931,-0.171649 L 16.60602,24.526087 a 0.44472773,0.4369255 1 0 1 0.304288,0.312089 l 5.453769,20.246816 q 0.117031,0.436925 -0.202858,0.749013 L 7.4617933,60.541232 Q 7.1575086,60.837715 6.7439876,60.751888 L 3.7089148,60.088699 Q 3.2485842,59.995071 3.1393539,59.542545 L 2.5775911,57.334511 Q 2.4683607,56.889779 2.9130862,56.999013 l 1.4044069,0.343299 Q 4.8480456,57.474951 4.7076019,56.9522 L 0.61922832,41.503762 Q 0.50219686,41.066835 0.07307071,40.949803 L -15.461192,36.736591 q -0.56176,-0.148239 -0.413515,0.40572 z M 1.6335206,38.226822 12.993585,26.819946 q 0.390109,-0.397915 -0.148244,-0.538355 L -2.4314438,22.177612 q -0.7958316,-0.21066 -1.3810006,0.374507 L -14.985253,33.849763 q -0.218461,0.226265 0.08583,0.312089 L 0.90791377,38.421876 Q 1.3292329,38.531107 1.6335206,38.226822 Z M 15.209417,28.653472 A 0.24186947,0.24186947 0 0 0 14.803703,28.544239 L 3.1003424,40.216392 a 0.24186947,0.24186947 0 0 0 -0.062418,0.234069 l 4.2990362,15.986792 a 0.24186947,0.24186947 0 0 0 0.4057139,0.10923 L 19.45384,44.835318 a 0.24186947,0.24186947 0 0 0 0.06242,-0.234066 z"
         id="path50"
         style="fill:url(#linearGradient1);fill-opacity:1;stroke-width:0.780223" /><path
         fill="#391561"
         d="M -1.6044077,63.474872 -5.7708072,47.745555 q -0.1248355,-0.452529 -0.577365,-0.569563 l -3.8933158,-0.975278 q -0.421323,-0.109234 -0.499345,-0.538357 l -0.312089,-1.872538 q -0.09363,-0.569561 0.460333,-0.413516 l 6.3510214,1.724291 q 0.4915409,0.13264 0.6241805,0.624181 l 5.3679421,19.98154 q 0.1170315,0.429121 -0.1950573,0.741212 L -13.23755,81.232774 q -0.280881,0.288682 -0.678794,0.179449 l -20.075169,-5.39915 q -0.452528,-0.124835 -0.569561,-0.577365 l -5.336734,-20.145387 q -0.09363,-0.358901 0.163849,-0.624178 l 14.683815,-14.683817 q 0.304288,-0.304287 0.72561,-0.202861 l 3.206721,0.811437 q 0.46033,0.117031 0.546157,0.585166 l 0.374507,1.973968 q 0.08582,0.46033 -0.358902,0.335495 l -1.310778,-0.343296 q -0.561763,-0.156046 -0.413518,0.405714 1.864734,6.881576 3.698261,13.71634 c 0.382311,1.435611 0.140441,2.083198 1.88034,2.559134 q 7.3887228,2.036386 14.7774425,3.979143 0.4369273,0.109234 0.3198958,-0.327694 z M -24.855087,44.218945 a 0.25747395,0.25747395 0 0 0 -0.429123,-0.117038 l -11.656547,11.633142 a 0.25747395,0.25747395 0 0 0 -0.07022,0.24187 l 4.275629,15.91657 a 0.25747395,0.25747395 0 0 0 0.429123,0.117038 l 11.711163,-11.547321 a 0.25747395,0.25747395 0 0 0 0.07022,-0.257472 z m 6.343223,17.867128 a 0.24186947,0.24186947 0 0 0 -0.234069,0.06242 l -11.679954,11.703364 a 0.24186947,0.24186947 0 0 0 0.109231,0.405714 l 15.893166,4.291232 a 0.24186947,0.24186947 0 0 0 0.234069,-0.06242 L -2.454853,66.751815 a 0.24186947,0.24186947 0 0 0 -0.1092303,-0.40572 z"
         id="path58"
         style="fill:url(#linearGradient2);fill-opacity:1;stroke-width:0.780223" /></g></g></svg>
