<?xml version="1.0" encoding="UTF-8" standalone="no"?>
<svg
   width="512.01pt"
   height="512pt"
   version="1.1"
   viewBox="0 0 512.01 512"
   id="svg9"
   sodipodi:docname="speech-bubble.svg"
   xml:space="preserve"
   inkscape:version="1.2.2 (b0a8486541, 2022-12-01)"
   xmlns:inkscape="http://www.inkscape.org/namespaces/inkscape"
   xmlns:sodipodi="http://sodipodi.sourceforge.net/DTD/sodipodi-0.dtd"
   xmlns:xlink="http://www.w3.org/1999/xlink"
   xmlns="http://www.w3.org/2000/svg"
   xmlns:svg="http://www.w3.org/2000/svg"><defs
     id="defs13"><linearGradient
       inkscape:collect="always"
       id="linearGradient2043"><stop
         style="stop-color:#fc8701;stop-opacity:1;"
         offset="0"
         id="stop2039" /><stop
         style="stop-color:#dd215d;stop-opacity:1;"
         offset="1"
         id="stop2041" /></linearGradient></defs><sodipodi:namedview
     id="namedview11"
     pagecolor="#ffffff"
     bordercolor="#666666"
     borderopacity="1.0"
     inkscape:showpageshadow="2"
     inkscape:pageopacity="0.0"
     inkscape:pagecheckerboard="0"
     inkscape:deskcolor="#d1d1d1"
     inkscape:document-units="pt"
     showgrid="false"
     inkscape:zoom="0.6363961"
     inkscape:cx="95.852253"
     inkscape:cy="355.91041"
     inkscape:window-width="1366"
     inkscape:window-height="715"
     inkscape:window-x="0"
     inkscape:window-y="27"
     inkscape:window-maximized="1"
     inkscape:current-layer="svg9" /><linearGradient
     id="a"
     x1="-3.7000002e-05"
     x2="512"
     y1="256"
     y2="256"
     gradientTransform="translate(1.3843e-4)"
     gradientUnits="userSpaceOnUse"
     xlink:href="#linearGradient2043"><!-- <stop stop-color="#80d8ff" offset="0"/>
  <stop stop-color="#ea80fc" offset="1"/> --><stop
       stop-color="#2d2b55"
       offset="0"
       id="stop2"
       style="stop-color:#f87a0d;stop-opacity:1;" /><stop
       stop-color="#474284"
       offset="1"
       id="stop4"
       style="stop-color:#de235b;stop-opacity:1;" /></linearGradient><path
     d="m267.09 0c-135.36 0-244.91 109.57-244.91 244.97 0 44.418 11.887 87.52 34.477 125.37l-54.582 112.91c-8.2969 17.168 9.8594 34.859 26.711 26.707l112.84-54.578c37.871 22.648 81.008 34.566 125.47 34.566 135.36 0 244.91-109.56 244.91-244.97 0-135.37-109.51-244.97-244.91-244.97zm-147.53 410.9c-40.445 0 67.959 20.765 34.385 4.9888 7.1302-62.482-50.106-41.183-56.47-38.105l-34.398 71.156 34.398-71.156c3.0742-6.3555 104.08 21.65 100.18 15.763-22.227-33.555 107.5-21.382 107.5-61.794 0-113.02-77.294-27.072 35.69-27.072 112.99 0-48.91-174.89-48.91-61.877 0 113.02-81.459 134.98-194.45 134.98z"
     fill="url(#a)"
     id="path7"
     style="fill-opacity:1.0" /></svg>
