<?xml version="1.0" encoding="UTF-8" standalone="no"?>
<!-- Created with Inkscape (http://www.inkscape.org/) -->

<svg
   width="703.92902"
   height="249.61746"
   viewBox="0 0 186.24788 66.044622"
   version="1.1"
   id="svg5"
   xml:space="preserve"
   inkscape:version="1.2.2 (b0a8486541, 2022-12-01)"
   sodipodi:docname="mbsocialweb_logo_white.svg"
   xmlns:inkscape="http://www.inkscape.org/namespaces/inkscape"
   xmlns:sodipodi="http://sodipodi.sourceforge.net/DTD/sodipodi-0.dtd"
   xmlns="http://www.w3.org/2000/svg"
   xmlns:svg="http://www.w3.org/2000/svg"><sodipodi:namedview
     id="namedview7"
     pagecolor="#ffffff"
     bordercolor="#666666"
     borderopacity="1.0"
     inkscape:showpageshadow="2"
     inkscape:pageopacity="0.0"
     inkscape:pagecheckerboard="0"
     inkscape:deskcolor="#d1d1d1"
     inkscape:document-units="px"
     showgrid="false"
     inkscape:zoom="0.9"
     inkscape:cx="375.55556"
     inkscape:cy="76.111111"
     inkscape:window-width="1366"
     inkscape:window-height="715"
     inkscape:window-x="0"
     inkscape:window-y="27"
     inkscape:window-maximized="1"
     inkscape:current-layer="layer1" /><defs
     id="defs2" /><g
     inkscape:label="Capa 1"
     inkscape:groupmode="layer"
     id="layer1"
     transform="translate(-0.23521475,-17.130591)"><g
       id="g2134"
       transform="translate(40.157991)"
       style="fill:#ffffff"><g
         id="g2115"
         transform="translate(0,-0.11793681)"
         style="fill:#ffffff"><path
           fill="#391561"
           d="m -15.874707,37.142311 4.096175,15.588876 a 0.71780616,0.70220169 89.2 0 0 0.507146,0.507146 l 3.9011204,0.983082 q 0.4213221,0.101429 0.4837398,0.530552 l 0.31989,1.989574 q 0.078026,0.499342 -0.4135151,0.366702 L -13.401397,55.39175 q -0.421322,-0.117031 -0.530555,-0.538353 -2.551333,-9.581152 -5.079257,-19.060874 -0.483737,-1.817922 0.803633,-3.042873 6.990807,-6.663115 13.856778,-13.451065 0.2886825,-0.273078 0.6709931,-0.171649 L 16.60602,24.526087 a 0.44472773,0.4369255 1 0 1 0.304288,0.312089 l 5.453769,20.246816 q 0.117031,0.436925 -0.202858,0.749013 L 7.4617933,60.541232 Q 7.1575086,60.837715 6.7439876,60.751888 L 3.7089148,60.088699 Q 3.2485842,59.995071 3.1393539,59.542545 L 2.5775911,57.334511 Q 2.4683607,56.889779 2.9130862,56.999013 l 1.4044069,0.343299 Q 4.8480456,57.474951 4.7076019,56.9522 L 0.61922832,41.503762 Q 0.50219686,41.066835 0.07307071,40.949803 L -15.461192,36.736591 q -0.56176,-0.148239 -0.413515,0.40572 z M 1.6335206,38.226822 12.993585,26.819946 q 0.390109,-0.397915 -0.148244,-0.538355 L -2.4314438,22.177612 q -0.7958316,-0.21066 -1.3810006,0.374507 L -14.985253,33.849763 q -0.218461,0.226265 0.08583,0.312089 L 0.90791377,38.421876 Q 1.3292329,38.531107 1.6335206,38.226822 Z M 15.209417,28.653472 A 0.24186947,0.24186947 0 0 0 14.803703,28.544239 L 3.1003424,40.216392 a 0.24186947,0.24186947 0 0 0 -0.062418,0.234069 l 4.2990362,15.986792 a 0.24186947,0.24186947 0 0 0 0.4057139,0.10923 L 19.45384,44.835318 a 0.24186947,0.24186947 0 0 0 0.06242,-0.234066 z"
           id="path50"
           style="fill:#ffffff;fill-opacity:1;stroke-width:0.780223" /><path
           fill="#391561"
           d="M -1.6044077,63.474872 -5.7708072,47.745555 q -0.1248355,-0.452529 -0.577365,-0.569563 l -3.8933158,-0.975278 q -0.421323,-0.109234 -0.499345,-0.538357 l -0.312089,-1.872538 q -0.09363,-0.569561 0.460333,-0.413516 l 6.3510214,1.724291 q 0.4915409,0.13264 0.6241805,0.624181 l 5.3679421,19.98154 q 0.1170315,0.429121 -0.1950573,0.741212 L -13.23755,81.232774 q -0.280881,0.288682 -0.678794,0.179449 l -20.075169,-5.39915 q -0.452528,-0.124835 -0.569561,-0.577365 l -5.336734,-20.145387 q -0.09363,-0.358901 0.163849,-0.624178 l 14.683815,-14.683817 q 0.304288,-0.304287 0.72561,-0.202861 l 3.206721,0.811437 q 0.46033,0.117031 0.546157,0.585166 l 0.374507,1.973968 q 0.08582,0.46033 -0.358902,0.335495 l -1.310778,-0.343296 q -0.561763,-0.156046 -0.413518,0.405714 1.864734,6.881576 3.698261,13.71634 c 0.382311,1.435611 0.140441,2.083198 1.88034,2.559134 q 7.3887228,2.036386 14.7774425,3.979143 0.4369273,0.109234 0.3198958,-0.327694 z M -24.855087,44.218945 a 0.25747395,0.25747395 0 0 0 -0.429123,-0.117038 l -11.656547,11.633142 a 0.25747395,0.25747395 0 0 0 -0.07022,0.24187 l 4.275629,15.91657 a 0.25747395,0.25747395 0 0 0 0.429123,0.117038 l 11.711163,-11.547321 a 0.25747395,0.25747395 0 0 0 0.07022,-0.257472 z m 6.343223,17.867128 a 0.24186947,0.24186947 0 0 0 -0.234069,0.06242 l -11.679954,11.703364 a 0.24186947,0.24186947 0 0 0 0.109231,0.405714 l 15.893166,4.291232 a 0.24186947,0.24186947 0 0 0 0.234069,-0.06242 L -2.454853,66.751815 a 0.24186947,0.24186947 0 0 0 -0.1092303,-0.40572 z"
           id="path58"
           style="fill:#ffffff;fill-opacity:1;stroke-width:0.780223" /></g><g
         id="g2079"
         style="fill:#ffffff"><g
           id="g2064"
           style="fill:#ffffff"><path
             d="m 36.122861,78.366138 q 0,1.106313 -0.361245,2.009425 -0.361245,0.880534 -1.038579,1.512712 -0.654756,0.609601 -1.603023,0.948268 -0.948268,0.338667 -2.122314,0.338667 -1.873957,0 -3.341514,-0.587023 -1.467557,-0.6096 -2.415825,-1.377246 l 1.873958,-1.873957 q 0.745067,0.677334 1.670757,1.038579 0.564445,0.225778 1.061156,0.293511 0.496712,0.06773 0.812801,0.06773 0.587023,0 1.061157,-0.135467 0.496711,-0.158045 0.857956,-0.406401 0.767646,-0.564445 0.767646,-1.490135 0,-0.564445 -0.406401,-1.016001 -0.316089,-0.361244 -0.812801,-0.587022 -0.4064,-0.225778 -0.857956,-0.361245 -0.451556,-0.135467 -0.812801,-0.248356 -0.112889,-0.04516 -0.2032,-0.04516 -0.09031,-0.02258 -0.158045,-0.06773 -0.04516,0 -0.135467,-0.04516 -0.474133,-0.135466 -1.377245,-0.474133 -0.880535,-0.338667 -1.761069,-0.92569 -2.05458,-1.377246 -2.05458,-3.38667 0,-1.332091 0.451556,-2.235203 0.474134,-0.925689 1.219202,-1.490134 0.745067,-0.587023 1.648179,-0.835379 0.92569,-0.248356 1.806224,-0.248356 1.625602,0 2.731914,0.383823 1.106312,0.383822 1.761068,0.767645 0.338667,0.2032 0.564445,0.4064 0.248356,0.180623 0.428979,0.338667 l -1.919113,1.941691 q -0.609601,-0.6096 -1.24178,-0.92569 -0.948267,-0.451556 -1.986846,-0.451556 -0.451556,0 -0.903112,0.112889 -0.451556,0.112889 -0.790223,0.293512 -0.993423,0.6096 -0.993423,1.603024 0,0.6096 0.4064,1.038578 0.293512,0.338667 0.812801,0.609601 0.428978,0.225778 0.903112,0.361245 0.474134,0.135467 0.880534,0.248356 l 0.270934,0.06773 q 0.112889,0.04516 0.428978,0.135467 0.316089,0.09031 0.745067,0.270934 0.428979,0.180622 0.92569,0.428978 0.51929,0.248356 1.016001,0.587023 2.190047,1.444979 2.190047,3.409247 z"
             id="path2009"
             style="font-size:22.5778px;line-height:1.25;font-family:Quantify;-inkscape-font-specification:Quantify;letter-spacing:0px;fill:#ffffff;stroke-width:0.619349" /><path
             d="m 45.470059,69.447907 q -1.106312,0 -2.099735,0.428978 -0.993423,0.406401 -1.783646,1.196624 -0.790223,0.790223 -1.219202,1.783646 -0.4064,0.993423 -0.4064,2.099736 0,1.106312 0.4064,2.122313 0.428979,0.993423 1.219202,1.783646 0.790223,0.790223 1.783646,1.196624 0.993423,0.4064 2.099735,0.4064 1.106313,0 2.099736,-0.4064 1.016001,-0.406401 1.806224,-1.196624 0.790223,-0.790223 1.196623,-1.783646 0.406401,-1.016001 0.406401,-2.122313 0,-1.106313 -0.406401,-2.099736 -0.4064,-0.993423 -1.196623,-1.783646 -0.790223,-0.790223 -1.806224,-1.196624 -0.993423,-0.428978 -2.099736,-0.428978 z m 0,-2.709336 q 1.693336,0 3.18347,0.654756 1.512713,0.632179 2.619025,1.761069 1.12889,1.106312 1.761069,2.619025 0.654756,1.490134 0.654756,3.18347 0,1.693335 -0.654756,3.206047 -0.632179,1.490135 -1.761069,2.619025 -1.106312,1.106312 -2.619025,1.761069 -1.490134,0.632178 -3.18347,0.632178 -1.693335,0 -3.206047,-0.632178 -1.490135,-0.654757 -2.619025,-1.761069 -1.106312,-1.12889 -1.761069,-2.619025 -0.632178,-1.512712 -0.632178,-3.206047 0,-1.693336 0.632178,-3.18347 0.654757,-1.512713 1.761069,-2.619025 1.12889,-1.12889 2.619025,-1.761069 1.512712,-0.654756 3.206047,-0.654756 z"
             id="path2011"
             style="font-size:22.5778px;line-height:1.25;font-family:Quantify;-inkscape-font-specification:Quantify;letter-spacing:0px;fill:#ffffff;stroke-width:0.619349" /><path
             d="m 68.747771,80.759385 q -1.12889,1.12889 -2.619025,1.783647 -1.490135,0.632178 -3.206048,0.632178 -1.693335,0 -3.206047,-0.632178 -1.490135,-0.654757 -2.619025,-1.761069 -1.106312,-1.12889 -1.761069,-2.619025 -0.632178,-1.512712 -0.632178,-3.206047 0,-1.693336 0.632178,-3.18347 0.654757,-1.512713 1.761069,-2.619025 1.12889,-1.12889 2.619025,-1.761069 1.512712,-0.654756 3.206047,-0.654756 1.715913,0 3.206048,0.654756 1.490135,0.632179 2.619025,1.761069 l -1.919113,1.919113 q -0.790223,-0.790223 -1.783646,-1.196624 -0.993424,-0.428978 -2.122314,-0.428978 -1.106312,0 -2.099735,0.428978 -0.993423,0.406401 -1.783646,1.196624 -0.790223,0.790223 -1.219202,1.783646 -0.4064,0.993423 -0.4064,2.099736 0,1.106312 0.4064,2.122313 0.428979,0.993423 1.219202,1.783646 0.790223,0.790223 1.783646,1.196624 0.993423,0.4064 2.099735,0.4064 1.12889,0 2.122314,-0.4064 0.993423,-0.406401 1.783646,-1.196624 z"
             id="path2013"
             style="font-size:22.5778px;line-height:1.25;font-family:Quantify;-inkscape-font-specification:Quantify;letter-spacing:0px;fill:#ffffff;stroke-width:0.619349" /><path
             d="M 72.586005,67.099816 V 82.881699 H 69.876669 V 67.099816 Z"
             id="path2015"
             style="font-size:22.5778px;line-height:1.25;font-family:Quantify;-inkscape-font-specification:Quantify;letter-spacing:0px;fill:#ffffff;stroke-width:0.619349" /><path
             d="m 83.829768,67.077238 7.134586,15.804461 h -2.98027 l -1.219201,-2.709336 v 0 l -1.219202,-2.709337 v 0 l -3.206047,-7.089429 -3.206048,7.089429 h 4.10916 l 1.219201,2.709337 h -6.547562 l -1.219202,2.709336 h -2.980269 l 7.134585,-15.804461 z"
             id="path2017"
             style="font-size:22.5778px;line-height:1.25;font-family:Quantify;-inkscape-font-specification:Quantify;letter-spacing:0px;fill:#ffffff;stroke-width:0.619349" /><path
             d="m 94.689699,80.172363 h 6.208891 v 2.709336 H 94.689699 91.980363 V 80.172363 67.099816 h 2.709336 z"
             id="path2019"
             style="font-size:22.5778px;line-height:1.25;font-family:Quantify;-inkscape-font-specification:Quantify;letter-spacing:0px;fill:#ffffff;stroke-width:0.619349" /><path
             d="m 106.1818,82.881699 h -2.82223 L 98.392457,67.077238 h 2.844803 l 3.49956,11.130856 3.22862,-11.130856 h 2.84481 l 3.49956,11.130856 3.22862,-11.130856 h 2.82223 l -4.60587,15.804461 h -2.82223 L 109.433,71.750843 Z"
             id="path2021"
             style="font-size:22.5778px;line-height:1.25;font-family:Quantify;-inkscape-font-specification:Quantify;letter-spacing:0px;fill:#ffffff;stroke-width:0.619349" /><path
             d="m 132.0108,69.786574 h -7.92481 V 73.6248 h 5.89281 l 0.67733,2.709336 h -6.57014 v 3.838227 h 7.92481 v 2.709336 H 121.37666 V 67.077238 h 10.63414 z"
             id="path2023"
             style="font-size:22.5778px;line-height:1.25;font-family:Quantify;-inkscape-font-specification:Quantify;letter-spacing:0px;fill:#ffffff;stroke-width:0.619349" /><path
             d="m 144.33826,74.437601 q 0.90312,0.632179 1.44498,1.625602 0.54187,0.993423 0.54187,2.167469 v 0.04516 q 0,0.948268 -0.36125,1.806224 -0.36124,0.835379 -0.99342,1.467557 -0.63218,0.609601 -1.46756,0.970846 -0.83537,0.361245 -1.78364,0.361245 h -4.49298 l 1.08373,-2.709336 h 3.40925 q 0.79022,0 1.33209,-0.541868 0.56444,-0.564445 0.56444,-1.354668 v -0.04516 q 0,-0.790223 -0.56444,-1.332091 -0.54187,-0.564445 -1.33209,-0.564445 h -1.10631 -4.42525 v 3.838227 2.709336 h -2.70934 V 76.334136 73.6248 67.077238 h 7.13459 q 0.94826,0 1.78364,0.361245 0.85796,0.361245 1.46756,0.993423 0.63218,0.632179 0.99342,1.467557 0.36125,0.835379 0.36125,1.783646 v 0.04516 q 0,0.767645 -0.24836,1.467557 -0.22578,0.677334 -0.63218,1.241779 z m -1.8288,-2.754492 q 0,-0.790223 -0.56444,-1.33209 -0.54187,-0.564445 -1.33209,-0.564445 h -4.42525 V 73.6248 h 4.42525 q 0.79022,0 1.33209,-0.541867 0.56444,-0.564445 0.56444,-1.354668 z"
             id="path2025"
             style="font-size:22.5778px;line-height:1.25;font-family:Quantify;-inkscape-font-specification:Quantify;letter-spacing:0px;fill:#ffffff;stroke-width:0.619349" /></g><g
           id="g226"
           transform="matrix(0.2301948,0,0,0.20379143,-26.628744,12.759051)"
           style="fill:#ffffff"><path
             fill="#391561"
             d="M 391.38179,123.19921 456.97875,21.928119 a 0.82161845,0.82161845 0 0 1 0.68909,-0.371053 h 38.24501 a 0.82161845,0.82161845 0 0 1 0.82162,0.821618 V 232.10342 a 0.82161845,0.82161845 0 0 1 -0.82162,0.82162 h -34.48146 a 0.82161845,0.82161845 0 0 1 -0.82162,-0.82162 L 460.31822,86.252889 a 0.82161845,0.82161845 0 0 0 -1.51071,-0.450565 L 391.40829,189.88283 a 0.82161845,0.82161845 0 0 1 -1.37819,0 L 322.65738,85.219248 a 0.82161845,0.82161845 0 0 0 -1.51072,0.424055 V 232.10342 a 0.82161845,0.82161845 0 0 1 -0.82162,0.82162 h -34.13692 a 0.82161845,0.82161845 0 0 1 -0.82162,-0.82162 V 22.378684 a 0.82161845,0.82161845 0 0 1 0.82162,-0.821618 h 37.87397 a 0.82161845,0.82161845 0 0 1 0.68909,0.371053 L 390.0036,123.19921 a 0.82161845,0.82161845 0 0 0 1.37819,0 z"
             id="path46"
             style="fill:#ffffff;fill-opacity:1;stroke-width:2.65038" /><path
             fill="#391561"
             d="m 555.30792,145.54194 a 0.90112992,0.90112992 0 0 0 -0.90113,0.87462 l -0.55658,84.99776 q 0,1.45771 -1.4577,1.45771 l -33.07678,0.18552 q -1.37819,0 -1.37819,-1.3782 V 22.405188 a 0.79511463,0.82161845 89 0 1 0.79511,-0.795115 q 45.32153,-0.132519 90.64307,-0.159024 c 19.00324,0 36.70778,6.705468 49.50913,20.911515 18.10211,20.089897 22.39573,52.92813 4.7972,76.331006 q -0.87463,1.16617 0.18552,2.17331 c 4.50565,4.21411 9.7004,8.24269 13.06639,13.09289 25.09912,36.28373 10.54852,84.41467 -32.28166,96.60642 -20.43445,5.83085 -53.06064,2.49136 -74.76727,2.27934 q -1.48422,-0.0265 -0.92764,-1.40471 l 13.03988,-33.05027 q 0.45056,-1.13966 1.66975,-1.13966 c 17.67804,-0.21202 53.32568,5.03573 64.64281,-10.73405 9.38235,-13.03988 5.16825,-32.52018 -10.54852,-38.61606 q -5.93686,-2.27933 -20.32844,-2.38535 -31.248,-0.21202 -62.12495,0.0265 z m -0.98064,-86.587984 0.10606,49.350114 a 0.92763373,0.92763373 0 0 0 0.92763,0.92763 l 56.93021,-0.10595 a 25.576188,26.212279 89.9 0 0 26.15923,-25.629255 v -0.05301 a 25.576188,26.212279 89.9 0 0 -26.26529,-25.52318 l -56.9302,0.106011 a 0.92763373,0.92763373 0 0 0 -0.92764,0.927634 z"
             id="path48"
             style="fill:#ffffff;fill-opacity:1;stroke-width:2.65038" /></g></g></g></g></svg>
