<?xml version="1.0" encoding="UTF-8"?><svg id="Layer_1" xmlns="http://www.w3.org/2000/svg" viewBox="0 0 902 730"><defs><style>.cls-1{stroke-width:1.5px;}.cls-1,.cls-2{fill:none;stroke:#03936a;stroke-miterlimit:10;}.cls-3{opacity:.5;}</style></defs><path class="cls-2" d="M575.45,404.41l.79,53.97,47.14,26.29,46.34-27.66-.79-53.98-47.13-26.3-46.35,27.67Z"/><path class="cls-2" d="M623.37,484.34l.79,53.97,47.13,26.3,46.35-27.67-.79-53.98-47.14-26.29-46.34,27.66Z"/><path class="cls-2" d="M717.64,536.94l.79,53.97,47.13,26.3,46.35-27.67-.79-53.98-47.14-26.3-46.34,27.67Z"/><path class="cls-2" d="M763.98,509.61l.79,53.98,47.14,26.3,46.34-27.67-.79-53.97-47.13-26.31-46.35,27.67Z"/><path class="cls-2" d="M578.59,619.63l.79,53.96,47.14,26.3,46.34-27.67-.79-53.97-47.13-26.3-46.35,27.67Z"/><path class="cls-2" d="M624.94,592.28l.79,53.97,47.13,26.31,46.35-27.67-.79-53.97-47.14-26.3-46.34,27.67Z"/><path class="cls-2" d="M672.08,618.93l.79,53.96,47.14,26.3,46.34-27.67-.79-53.96-47.13-26.3-46.35,27.67Z"/><path class="cls-2" d="M670.5,510.98l.79,53.97,47.14,26.3,46.34-27.67-.79-53.98-47.13-26.3-46.35,27.67Z"/><path class="cls-2" d="M621.79,376.41l.79,53.97,47.13,26.31,46.35-27.67-.79-53.97-47.14-26.3-46.34,27.67Z"/><path class="cls-2" d="M527.52,323.8l.79,53.98,47.13,26.3,46.35-27.67-.79-53.97-47.14-26.31-46.34,27.67Z"/><path class="cls-2" d="M573.87,296.46l.79,53.97,47.14,26.3,46.34-27.67-.79-53.97-47.13-26.29-46.35,27.66Z"/><path class="cls-2" d="M529.1,431.74l.79,53.96,47.13,26.31,46.35-27.67-.79-53.96-47.14-26.3-46.34,27.67Z"/><path class="cls-2" d="M483.54,513.71l.79,53.98,47.14,26.3,46.34-27.67-.79-53.97-47.13-26.3-46.35,27.67Z"/><path class="cls-2" d="M529.89,485.71l.79,53.97,47.13,26.3,46.35-27.67-.79-53.97-47.14-26.3-46.34,27.66Z"/><path class="cls-2" d="M621,322.43l.79,53.97,47.13,26.3,46.35-27.67-.79-53.97-47.14-26.3-46.34,27.67Z"/><g class="cls-3"><path class="cls-1" d="M462.71,325.26v-53.98l-46.75-26.98-46.74,26.98v53.98l46.74,26.99,46.75-26.99Z"/><path class="cls-1" d="M415.96,244.63v-53.98l-46.74-26.99-46.75,26.99v53.98l46.75,26.98,46.74-26.98Z"/><path class="cls-1" d="M322.47,190.66v-53.98l-46.74-26.99-46.75,26.99v53.98l46.75,26.98,46.74-26.98Z"/><path class="cls-1" d="M322.47,298.6v-53.97l-46.74-26.99-46.75,26.99v53.97l46.75,26.99,46.74-26.99Z"/><path class="cls-1" d="M275.73,217.31v-53.98l-46.75-26.99-46.75,26.99v53.98l46.75,26.99,46.75-26.99Z"/><path class="cls-1" d="M228.98,190.66v-53.98l-46.75-26.99-46.74,26.99v53.98l46.74,26.98,46.75-26.98Z"/><path class="cls-1" d="M275.73,271.28v-53.97l-46.75-26.99-46.75,26.99v53.97l46.75,26.99,46.75-26.99Z"/><path class="cls-1" d="M462.71,110.01V56.04l-46.75-26.99-46.74,26.99v53.97l46.74,26.99,46.75-26.99Z"/><path class="cls-1" d="M415.96,136.68v-53.98l-46.74-26.99-46.75,26.99v53.98l46.75,26.99,46.74-26.99Z"/><path class="cls-1" d="M369.22,109.35V55.38l-46.75-26.99-46.74,26.99v53.97l46.74,26.99,46.75-26.99Z"/><path class="cls-1" d="M369.22,217.31v-53.98l-46.75-26.99-46.74,26.99v53.98l46.74,26.99,46.75-26.99Z"/><path class="cls-1" d="M228.98,298.6v-53.97l-46.75-26.99-46.74,26.99v53.97l46.74,26.99,46.75-26.99Z"/><path class="cls-1" d="M182.23,325.26v-53.98l-46.74-26.98-46.75,26.98v53.98l46.75,26.99,46.74-26.99Z"/><path class="cls-1" d="M415.96,352.58v-53.98l-46.74-26.99-46.75,26.99v53.98l46.75,26.99,46.74-26.99Z"/><path class="cls-1" d="M322.47,352.58v-53.98l-46.74-26.99-46.75,26.99v53.98l46.75,26.99,46.74-26.99Z"/><path class="cls-1" d="M509.45,406.56v-53.98l-46.74-26.99-46.75,26.99v53.98l46.75,26.98,46.74-26.98Z"/><path class="cls-1" d="M462.71,433.21v-53.97l-46.75-26.99-46.74,26.99v53.97l46.74,26.99,46.75-26.99Z"/><path class="cls-1" d="M509.45,298.6v-53.97l-46.74-26.99-46.75,26.99v53.97l46.75,26.99,46.74-26.99Z"/><path class="cls-1" d="M556.2,217.31v-53.98l-46.75-26.99-46.74,26.99v53.98l46.74,26.99,46.75-26.99Z"/><path class="cls-1" d="M135.49,352.58v-53.98l-46.75-26.99-46.74,26.99v53.98l46.74,26.99,46.75-26.99Z"/><path class="cls-1" d="M509.45,244.63v-53.98l-46.74-26.99-46.75,26.99v53.98l46.75,26.98,46.74-26.98Z"/><path class="cls-1" d="M415.96,406.56v-53.98l-46.74-26.99-46.75,26.99v53.98l46.75,26.98,46.74-26.98Z"/></g></svg>