<?xml version="1.0" encoding="UTF-8" standalone="no"?>
<!-- Created with Inkscape (http://www.inkscape.org/) -->

<svg
   version="1.1"
   id="svg2"
   xml:space="preserve"
   width="693.34998"
   height="634.58838"
   viewBox="0 0 693.34998 634.58835"
   sodipodi:docname="ink-up.svg"
   inkscape:version="1.3 (0e150ed6c4, 2023-07-21)"
   xmlns:inkscape="http://www.inkscape.org/namespaces/inkscape"
   xmlns:sodipodi="http://sodipodi.sourceforge.net/DTD/sodipodi-0.dtd"
   xmlns:xlink="http://www.w3.org/1999/xlink"
   xmlns="http://www.w3.org/2000/svg"
   xmlns:svg="http://www.w3.org/2000/svg"
   xmlns:rdf="http://www.w3.org/1999/02/22-rdf-syntax-ns#"
   xmlns:cc="http://creativecommons.org/ns#"
   xmlns:dc="http://purl.org/dc/elements/1.1/"><metadata
     id="metadata8"><rdf:RDF><cc:Work
         rdf:about=""><dc:format>image/svg+xml</dc:format><dc:type
           rdf:resource="http://purl.org/dc/dcmitype/StillImage" /></cc:Work></rdf:RDF></metadata><defs
     id="defs6"><clipPath
       clipPathUnits="userSpaceOnUse"
       id="clipPath18"><path
         d="M 0,62.785 V 42.252 C 26.004,25.986 112.287,14.042 214.722,14.042 v 0 c 123.013,0 222.738,17.227 222.738,38.477 v 0 c 0,21.25 -99.725,38.476 -222.738,38.476 v 0 C 112.287,90.995 26.004,79.051 0,62.785"
         id="path16"
         inkscape:connector-curvature="0" /></clipPath><radialGradient
       fx="0"
       fy="0"
       cx="0"
       cy="0"
       r="1"
       gradientUnits="userSpaceOnUse"
       gradientTransform="matrix(222.73877,0,0,-38.476562,214.71924,52.518555)"
       spreadMethod="pad"
       id="radialGradient36"><stop
         style="stop-opacity:1;stop-color:#ffffff"
         offset="0"
         id="stop28" /><stop
         style="stop-opacity:1;stop-color:#ffffff"
         offset="0.230301"
         id="stop30" /><stop
         style="stop-opacity:0;stop-color:#ffffff"
         offset="0.76439508"
         id="stop32" /><stop
         style="stop-opacity:0;stop-color:#ffffff"
         offset="1"
         id="stop34" /></radialGradient><mask
       maskUnits="userSpaceOnUse"
       x="0"
       y="0"
       width="1"
       height="1"
       id="mask38"><g
         id="g48"><g
           id="g46"><g
             id="g44"><g
               id="g42"><path
                 d="M -32767,32767 H 32767 V -32767 H -32767 Z"
                 style="fill:url(#radialGradient36);stroke:none"
                 id="path40"
                 inkscape:connector-curvature="0" /></g></g></g></g></mask><radialGradient
       fx="0"
       fy="0"
       cx="0"
       cy="0"
       r="1"
       gradientUnits="userSpaceOnUse"
       gradientTransform="matrix(222.73877,0,0,-38.476562,214.71924,52.518555)"
       spreadMethod="pad"
       id="radialGradient62"><stop
         style="stop-opacity:1;stop-color:#6d6e71"
         offset="0"
         id="stop54" /><stop
         style="stop-opacity:1;stop-color:#6d6e71"
         offset="0.230301"
         id="stop56" /><stop
         style="stop-opacity:1;stop-color:#6d6e71"
         offset="0.76439508"
         id="stop58" /><stop
         style="stop-opacity:1;stop-color:#6d6e71"
         offset="1"
         id="stop60" /></radialGradient><clipPath
       clipPathUnits="userSpaceOnUse"
       id="clipPath72"><path
         d="m 92.1,564.151 c 0,-114.732 93.008,-207.739 207.739,-207.739 v 0 c 114.733,0 207.741,93.007 207.741,207.739 v 0 c 0,114.732 -93.008,207.741 -207.741,207.741 v 0 C 185.108,771.892 92.1,678.883 92.1,564.151"
         id="path70"
         inkscape:connector-curvature="0" /></clipPath><radialGradient
       fx="0"
       fy="0"
       cx="0"
       cy="0"
       r="1"
       gradientUnits="userSpaceOnUse"
       gradientTransform="matrix(207.74023,0,0,-207.74023,299.83984,564.15234)"
       spreadMethod="pad"
       id="radialGradient90"><stop
         style="stop-opacity:1;stop-color:#ffffff"
         offset="0"
         id="stop82" /><stop
         style="stop-opacity:1;stop-color:#ffffff"
         offset="0.236359"
         id="stop84" /><stop
         style="stop-opacity:0;stop-color:#ffffff"
         offset="0.94148837"
         id="stop86" /><stop
         style="stop-opacity:0;stop-color:#ffffff"
         offset="1"
         id="stop88" /></radialGradient><mask
       maskUnits="userSpaceOnUse"
       x="0"
       y="0"
       width="1"
       height="1"
       id="mask92"><g
         id="g102"><g
           id="g100"><g
             id="g98"><g
               id="g96"><path
                 d="M -32767,32767 H 32767 V -32767 H -32767 Z"
                 style="fill:url(#radialGradient90);stroke:none"
                 id="path94"
                 inkscape:connector-curvature="0" /></g></g></g></g></mask><radialGradient
       fx="0"
       fy="0"
       cx="0"
       cy="0"
       r="1"
       gradientUnits="userSpaceOnUse"
       gradientTransform="matrix(207.74023,0,0,-207.74023,299.83984,564.15234)"
       spreadMethod="pad"
       id="radialGradient116"><stop
         style="stop-opacity:1;stop-color:#ffffff"
         offset="0"
         id="stop108" /><stop
         style="stop-opacity:1;stop-color:#ffffff"
         offset="0.236359"
         id="stop110" /><stop
         style="stop-opacity:1;stop-color:#ffffff"
         offset="0.94148837"
         id="stop112" /><stop
         style="stop-opacity:1;stop-color:#ffffff"
         offset="1"
         id="stop114" /></radialGradient><clipPath
       clipPathUnits="userSpaceOnUse"
       id="clipPath126"><path
         d="M 0,792 H 612 V 0 H 0 Z"
         id="path124"
         inkscape:connector-curvature="0" /></clipPath><radialGradient
       inkscape:collect="always"
       xlink:href="#radialGradient116"
       id="radialGradient5339"
       gradientUnits="userSpaceOnUse"
       gradientTransform="matrix(207.74023,0,0,-207.74023,299.83984,564.15234)"
       cx="0"
       cy="0"
       fx="0"
       fy="0"
       r="1"
       spreadMethod="pad" /></defs><sodipodi:namedview
     pagecolor="#ffffff"
     bordercolor="#666666"
     borderopacity="1"
     objecttolerance="10"
     gridtolerance="10"
     guidetolerance="10"
     inkscape:pageopacity="0"
     inkscape:pageshadow="2"
     inkscape:window-width="1366"
     inkscape:window-height="715"
     id="namedview4"
     showgrid="false"
     showborder="false"
     fit-margin-top="0"
     fit-margin-left="0"
     fit-margin-right="0"
     fit-margin-bottom="0"
     inkscape:zoom="0.6363961"
     inkscape:cx="331.55451"
     inkscape:cy="274.98597"
     inkscape:window-x="0"
     inkscape:window-y="27"
     inkscape:window-maximized="1"
     inkscape:current-layer="g10"
     inkscape:showpageshadow="2"
     inkscape:pagecheckerboard="0"
     inkscape:deskcolor="#d1d1d1" /><g
     id="g10"
     inkscape:groupmode="layer"
     inkscape:label="ink-1582152"
     transform="matrix(1.3333333,0,0,-1.3333333,-1187.7967,1213.5946)"><g
       id="g5187"
       transform="matrix(0.23948256,-0.85614085,0.85614085,0.23948256,671.33134,788.74791)"><g
         id="g5185"
         clip-path="url(#clipPath72)"><g
           id="g5183"><g
             id="g5175" /><g
             id="g5181"
             mask="url(#mask92)"><g
               id="g5179"><path
                 d="m 92.1,564.151 c 0,-114.732 93.008,-207.739 207.739,-207.739 v 0 c 114.733,0 207.741,93.007 207.741,207.739 v 0 c 0,114.732 -93.008,207.741 -207.741,207.741 v 0 C 185.108,771.892 92.1,678.883 92.1,564.151"
                 style="fill:url(#radialGradient5339);stroke:none"
                 id="path5177"
                 inkscape:connector-curvature="0" /></g></g></g></g></g><g
       id="g5191"
       transform="matrix(0.23948256,-0.85614085,0.85614085,0.23948256,1204.7929,618.0366)"
       style="fill:#a277ff;fill-opacity:1"><path
         d="m 0,0 c -2.907,-16.75 32.605,-37.146 45.613,-42.495 37.473,-15.408 72.389,-18.224 86.504,-19.464 10.26,-0.902 21.87,-1.029 32.349,-3.205 19.992,-4.151 17.168,-25.938 5.941,-30.717 -12.658,-5.388 -29.075,-1.85 -43.043,1.698 -31.622,8.033 -61.243,21.851 -84.649,37.357 -17.69,11.718 -47.994,38.351 -53.5,19.32 -1.85,-6.394 3.167,-13.272 6.004,-17.616 3.305,-5.06 7.164,-11.878 5.305,-17.421 -2.016,-6.017 -12.998,-8.521 -17.543,6.087 -2.943,9.46 1.137,31.707 -9.044,30.319 -9.005,-2.575 -8.8,-14.035 -9.107,-22.019 -0.343,-8.952 0.757,-17.943 1.629,-25.401 3.242,-27.747 11.887,-54.067 33.879,-71.148 8.735,-6.785 23.308,-13.55 26.69,-22.937 2.853,-7.916 2.531,-19.838 -8.451,-24.427 -20.069,-7.511 -47.334,16.272 -58.091,89.081 -3.173,21.476 -3.146,48.779 -6.461,72.55 -0.91,6.528 -3.267,18.956 -8.008,20.216 -3.451,0.917 -8.801,-5.303 -10.837,-8.45 -6.852,-10.585 -12.013,-26.355 -13.06,-40.967 -0.529,-7.398 -0.613,-14.992 -1.335,-22.126 -1.398,-13.791 -3.574,-31.42 -13.401,-34.328 -11.073,-3.275 -17.78,9.584 -16.041,20.806 3.924,25.306 20.856,46.649 29.946,69.419 2.442,6.122 8.829,20.873 4.394,24.143 -2.661,1.962 -10.491,-3.093 -13.629,-6.042 -42.448,-39.897 -57.555,-76.887 -64.101,-101.874 -15.26,-58.251 -17.52,-118.085 28.369,-208.116 2.317,-4.546 -6.182,3.208 -6.716,-2.467 -23.791,31.555 -39.953,90.054 -44.21,120.865 -5.533,40.046 -3.883,119.033 56.559,198.712 3.463,4.566 14.98,20.18 11.893,26.965 -4.019,9.853 -13.486,4.846 -20.26,-2.568 -8.42,-9.216 -14.465,-27.932 -25.104,-36.813 -4.232,-3.531 -14.326,-7.652 -18.685,-0.549 -2.14,3.487 -1.339,8.897 0.277,12.604 6.909,15.848 24.793,21.324 37.494,30.924 4.249,3.211 10.388,8.326 9.707,13.263 -0.816,5.939 -11.798,6.023 -18.152,6.664 -8.587,0.868 -22.394,0.502 -34.923,-3.61 -33.441,-10.974 -57.644,-31.041 -61.952,-33.77 -7.713,-4.885 -12.901,-9.569 -23.534,-8.344 -11.494,1.323 -14.937,12.641 -10.498,25.134 3.492,9.83 18.949,24.884 57.748,28.586 12.291,1.174 24.228,1.888 35.452,2.45 5.841,0.293 40.011,-1.294 47.941,5.126 12.267,13.196 -16.687,24.56 -32.156,27.62 -13.231,2.616 -42.836,-1.312 -48.989,18.582 -2.047,6.62 -0.59,15.071 7.792,17.884 8.555,2.872 18.589,-1.065 30.549,-9.281 4.472,-3.072 48.525,-36.878 60.024,-39.533 8.17,-1.887 16.765,0.082 14.593,10.273 -3.384,15.881 -37.791,28.734 -60.013,53.06 -23.391,21.127 -29.352,61.944 -10.625,91.261 10.667,16.698 22.493,26.823 38.632,32.655 16.184,5.848 67.511,11.484 82.503,-27.665 8.394,-22.878 -8.172,-33.587 -22.589,-30.245 -15.162,3.516 -28.609,14.707 -42.288,19.721 -6.19,2.269 -20.162,7.604 -32.696,-5.084 -9.525,-10.838 -13.938,-28.51 -12.186,-42.025 3.229,-24.913 32.228,-41.081 38.45,-44.601 36.915,-20.878 53.364,-23.359 70.073,-12.884 C -29.536,127.711 -24,175.599 5.346,184.414 39.31,194.615 61.985,171.094 73.01,158.927 84.239,146.534 93.545,128.016 93.119,108.773 92.031,59.592 58.531,61.495 34.042,64.603 26.984,65.498 9.102,68.373 6.97,59.832 5.258,52.974 15.414,47.788 23.104,44.319 c 7.965,-3.594 16.621,-6.972 25.485,-8.696 21.781,-4.239 63.025,-6.918 114.569,12.436 5.398,2.027 43.143,20.74 57.019,2.61 C 231.255,36.196 220.359,21.871 207.216,18.267 149.802,2.522 55.229,25.426 40.459,27.649 33.511,28.695 26.492,30.076 18.636,31.241 12.146,32.203 2.653,33.365 0.819,27.996 -0.394,24.444 1.676,20.048 4.911,18.272 13.685,13.458 30.35,25.904 37.561,13.318 39.051,10.717 40.517,3.91 36.669,-1.978 34.784,-4.862 29.052,-6.682 24.964,-6.098 20.665,-5.483 15.037,-2.802 11.35,-0.69 7.521,1.503 3.942,4.115 0,0"
         style="fill:#a277ff;fill-opacity:1;fill-rule:evenodd;stroke:none"
         id="path5189"
         inkscape:connector-curvature="0" /></g><g
       id="g5195"
       transform="matrix(0.23948256,-0.85614085,0.85614085,0.23948256,1319.2443,480.93019)"
       style="fill:#a277ff;fill-opacity:1"><path
         d="m 0,0 c -20.562,-0.922 -50.76,-22.752 -80.616,-21.433 18.361,4.486 25.261,6.762 33.541,10.341 C -14.838,2.844 0.218,-0.037 0,0"
         style="fill:#a277ff;fill-opacity:1;fill-rule:evenodd;stroke:none"
         id="path5193"
         inkscape:connector-curvature="0" /></g><g
       id="g5199"
       transform="matrix(0.23948256,-0.85614085,0.85614085,0.23948256,1006.9595,554.33306)"
       style="fill:#a277ff;fill-opacity:1"><path
         d="m 0,0 c 3.895,0.358 33.145,-24.533 41.263,-30.654 7.463,-5.627 14.666,-12.909 20.495,-19.176 18.38,-19.758 6.937,-34.54 -4.576,-29.819 -7.115,2.918 -13.366,12.663 -16.568,18.498 -8.088,14.74 -15.054,29.793 -24.833,42.464 C 12.045,-13.846 5.962,-7.417 0,0"
         style="fill:#a277ff;fill-opacity:1;fill-rule:evenodd;stroke:none"
         id="path5197"
         inkscape:connector-curvature="0" /></g><g
       id="g5203"
       transform="matrix(0.23948256,-0.85614085,0.85614085,0.23948256,1145.1812,493.7117)"
       style="fill:#a277ff;fill-opacity:1"><path
         d="M 0,0 C -0.011,-0.346 -0.219,-0.326 -0.437,-0.289 -23.874,-0.322 -60.519,9.763 -98.255,49.307 -95.825,49.142 -65.243,27.201 -47.999,19.022 -41.71,16.04 -25.682,7.688 0,0"
         style="fill:#a277ff;fill-opacity:1;fill-rule:evenodd;stroke:none"
         id="path5201"
         inkscape:connector-curvature="0" /></g><g
       id="g5207"
       transform="matrix(0.23948256,-0.85614085,0.85614085,0.23948256,1212.9682,572.04844)"
       style="fill:#2d2a5f;fill-opacity:1"><path
         d="m 0,0 c 13.844,3.199 34.722,4.035 47.585,0.315 9.988,-2.888 18.902,-10.646 9.93,-19.93 -7.893,-6.235 -20.432,1.431 -29.852,7.452 C 18.237,-6.138 9.911,-1.505 0,0"
         style="fill:#a277ff;fill-opacity:1;fill-rule:evenodd;stroke:none"
         id="path5205"
         inkscape:connector-curvature="0" /></g><g
       id="g5211"
       transform="matrix(0.23948256,-0.85614085,0.85614085,0.23948256,1128.8109,593.73827)"
       style="fill:#a277ff;fill-opacity:1"><path
         d="m 0,0 c 13.765,-25.608 27.315,-30.383 40.558,-35.368 23.949,-9.017 18.788,-31.003 3.978,-31.37 -11.11,-0.276 -22.806,10.054 -29.26,20.159 C 7.779,-34.841 2.404,-16.429 0,0"
         style="fill:#a277ff;fill-opacity:1;fill-rule:evenodd;stroke:none"
         id="path5209"
         inkscape:connector-curvature="0" /></g><g
       id="g5215"
       transform="matrix(0.23948256,-0.85614085,0.85614085,0.23948256,1309.8545,588.37782)"><path
         d="M 0,0 C -1.443,-2.698 2.016,-6.835 4.729,-7.233 8.962,-7.854 15.517,-4.174 16.841,11.035 7.954,-3.34 1.207,2.258 0,0"
         style="fill:#ffffff;fill-opacity:1;fill-rule:evenodd;stroke:none"
         id="path5213"
         inkscape:connector-curvature="0" /></g><g
       id="g5219"
       transform="matrix(0.23948256,-0.85614085,0.85614085,0.23948256,1332.1723,581.95011)"><path
         d="M 0,0 C -3.084,21.338 -24.108,45.116 -51.355,48.476 -33.505,43.94 -19.542,26.654 -13.674,12.49 -10.59,5.045 -8.269,-6.795 -12.94,-15.209 -5.373,-17.134 1.225,-8.478 0,0"
         style="fill:#ffffff;fill-opacity:1;fill-rule:evenodd;stroke:none"
         id="path5217"
         inkscape:connector-curvature="0" /></g><g
       id="g5223"
       transform="matrix(0.23948256,-0.85614085,0.85614085,0.23948256,1283.6137,628.29938)"><path
         d="m 0,0 c 6.147,-0.775 11.223,1.581 15.549,6.327 9.823,10.709 7.009,27.74 -3.923,33.203 -2.065,1.032 -7.663,2.432 -11.926,1.455 4.148,7.834 2.445,14.016 0.454,16.619 -2.085,2.727 -5.283,4.645 -8.722,5.714 -8.098,2.517 -18.29,0.011 -23.495,-6.989 -6.014,-8.087 -4.946,-18.262 -0.12,-24.949 2.331,-3.231 7.451,-6.434 16.495,-7.401 C -20.232,13.091 -12.506,1.577 0,0"
         style="fill:#ffffff;fill-opacity:1;fill-rule:evenodd;stroke:none"
         id="path5221"
         inkscape:connector-curvature="0" /></g><g
       id="g5227"
       transform="matrix(0.23948256,-0.85614085,0.85614085,0.23948256,1003.0347,702.3008)"
       style="fill:#a277ff;fill-opacity:1"><path
         d="M 0,0 C -1.413,59.823 21.78,122.181 58.13,151.144 15.042,102.336 6.937,42.444 0,0"
         style="fill:#a277ff;fill-opacity:1;fill-rule:evenodd;stroke:none"
         id="path5225"
         inkscape:connector-curvature="0" /></g><g
       id="g5231"
       transform="matrix(0.23948256,-0.85614085,0.85614085,0.23948256,1345.8161,697.66949)"
       style="fill:#a277ff;fill-opacity:1"><path
         d="m 0,0 c -4.677,-3.983 -10.251,-7.36 -15.988,-8.25 -29.453,-4.577 -37.962,18.016 -56.898,23.942 8.67,1.583 17.279,-5.697 21.73,-8.882 5.242,-3.754 10.863,-8.077 16.926,-10.416 C -21.217,-8.627 -10.457,-4.697 0,0"
         style="fill:#a277ff;fill-opacity:1;fill-rule:evenodd;stroke:none"
         id="path5229"
         inkscape:connector-curvature="0" /></g><g
       id="g5235"
       transform="matrix(0.23948256,-0.85614085,0.85614085,0.23948256,1343.9711,734.62223)"
       style="fill:#a277ff;fill-opacity:1"><path
         d="m 0,0 c -7.912,3.966 -13.957,11.848 -23.119,15.813 -2.447,1.058 -9.6,4.745 -18.767,3.971 3.867,2.577 7.908,3.255 12.75,2.195 C -9.562,17.69 -0.213,-6.206 29.251,1.304 22.096,-4.989 9.329,-4.676 0,0"
         style="fill:#a277ff;fill-opacity:1;fill-rule:evenodd;stroke:none"
         id="path5233"
         inkscape:connector-curvature="0" /></g><g
       id="g5239"
       transform="matrix(0.23948256,-0.85614085,0.85614085,0.23948256,1141.2829,733.8033)"
       style="fill:#a277ff;fill-opacity:1"><path
         d="m 0,0 c -15.698,-17.181 -30.451,-42.553 -36.9,-76.476 -1.518,-7.985 -2.323,-15.935 -3.396,-25.707 -0.673,-6.125 -0.425,-21.085 -7.655,-20.312 -10.024,1.072 -4.866,20.99 -2.536,30.375 C -41.086,-54.25 -23.03,-21.615 0,0"
         style="fill:#a277ff;fill-opacity:1;fill-rule:evenodd;stroke:none"
         id="path5237"
         inkscape:connector-curvature="0" /></g><g
       id="g5243"
       transform="matrix(0.23948256,-0.85614085,0.85614085,0.23948256,1053.2691,762.14031)"
       style="fill:#a277ff;fill-opacity:1"><path
         d="m 0,0 c -9.475,-33.437 -9.172,-55.904 -7.467,-67.662 1.277,-8.803 4.327,-17.578 4.119,-25.507 -0.093,-3.486 -2.625,-8.496 -5.405,-8.24 -3.099,0.285 -5.914,6.217 -6.625,9.397 -2.56,11.451 -1.269,27.872 1.066,41.616 C -12.764,-41.286 -9.913,-22.402 0,0"
         style="fill:#a277ff;fill-opacity:1;fill-rule:evenodd;stroke:none"
         id="path5241"
         inkscape:connector-curvature="0" /></g><g
       id="g5247"
       transform="matrix(0.23948256,-0.85614085,0.85614085,0.23948256,1121.9431,816.95045)"
       style="fill:#a277ff;fill-opacity:1"><path
         d="m 0,0 c -4.288,-3.915 -6.684,-6.542 -9.269,-11.339 -5.43,-10.074 -6.786,-23.954 -8.514,-37.317 -1.671,-12.912 -3.187,-30.181 -16.014,-29.512 -12.745,1.309 -14.036,15.23 -9.395,28.78 6.285,18.346 22.747,35.274 35.154,45.071 C -4.759,-1.729 0.089,0.386 0,0"
         style="fill:#a277ff;fill-opacity:1;fill-rule:evenodd;stroke:none"
         id="path5245"
         inkscape:connector-curvature="0" /></g><g
       id="g5251"
       transform="matrix(0.23948256,-0.85614085,0.85614085,0.23948256,1258.8054,878.98707)"
       style="fill:#a277ff;fill-opacity:1"><path
         d="m 0,0 c -8.354,3.369 -17.455,6.773 -22.686,12.83 -3.052,3.533 -8.234,9.007 -5.481,16.651 1.086,3.015 7.582,10.667 20.086,3.435 C 0.057,28.209 4.768,18.911 11.029,11.119 17.532,3.028 21.162,-2.726 32.03,-10.918 14.88,-4.736 5.647,-2.276 0,0"
         style="fill:#a277ff;fill-opacity:1;fill-rule:evenodd;stroke:none"
         id="path5249"
         inkscape:connector-curvature="0" /></g><g
       id="g5255"
       transform="matrix(0.23948256,-0.85614085,0.85614085,0.23948256,1156.3265,800.57867)"
       style="fill:#a277ff;fill-opacity:1"><path
         d="M 0,0 C 16.871,15.911 39.265,28.805 66.127,26.265 53.545,19.043 19.931,11.917 0,0"
         style="fill:#a277ff;fill-opacity:1;fill-rule:evenodd;stroke:none"
         id="path5253"
         inkscape:connector-curvature="0" /></g><g
       id="g5259"
       transform="matrix(0.23948256,-0.85614085,0.85614085,0.23948256,1316.364,642.51058)"><path
         d="m 0,0 c 0,-3.437 -3.034,-6.223 -6.776,-6.223 -3.743,0 -6.777,2.786 -6.777,6.223 0,3.436 3.034,6.222 6.777,6.222 C -3.034,6.222 0,3.436 0,0"
         style="fill:#000000;fill-opacity:1;fill-rule:evenodd;stroke:none"
         id="path5257"
         inkscape:connector-curvature="0" /></g><g
       id="g5263"
       transform="matrix(0.23948256,-0.85614085,0.85614085,0.23948256,1315.5129,644.18366)"><path
         d="m 0,0 c 0,-1.26 -0.927,-2.282 -2.071,-2.282 -1.144,0 -2.071,1.022 -2.071,2.282 0,1.26 0.927,2.282 2.071,2.282 C -0.927,2.282 0,1.26 0,0"
         style="fill:#ffffff;fill-opacity:1;fill-rule:evenodd;stroke:none"
         id="path5261"
         inkscape:connector-curvature="0" /></g><g
       id="g5267"
       transform="matrix(0.23948256,-0.85614085,0.85614085,0.23948256,1312.7028,638.17982)"><path
         d="m 0,0 c -2.907,1.245 -6.363,-0.863 -7.718,-4.707 -1.355,-3.843 -0.096,-7.968 2.81,-9.213 2.907,-1.245 6.362,0.864 7.718,4.708 C 4.165,-5.37 2.906,-1.244 0,0"
         style="fill:#000000;fill-opacity:1;fill-rule:evenodd;stroke:none"
         id="path5265"
         inkscape:connector-curvature="0" /></g><g
       id="g5271"
       transform="matrix(0.23948256,-0.85614085,0.85614085,0.23948256,1310.7475,638.64876)"><path
         d="M 0,0 C -1.066,0.456 -2.267,-0.125 -2.681,-1.301 -3.095,-2.476 -2.566,-3.797 -1.5,-4.254 -0.435,-4.71 0.766,-4.128 1.18,-2.953 1.595,-1.778 1.065,-0.456 0,0"
         style="fill:#ffffff;fill-opacity:1;fill-rule:evenodd;stroke:none"
         id="path5269"
         inkscape:connector-curvature="0" /></g><g
       id="g5275"
       transform="matrix(0.23948256,-0.85614085,0.85614085,0.23948256,1381.8245,720.46741)"><path
         d="M 0,0 C 0,0 1.111,28.685 -38.89,28.16 -38.89,28.16 -5.714,17.666 0,0"
         style="fill:#ffffff;fill-opacity:1;fill-rule:evenodd;stroke:none"
         id="path5273"
         inkscape:connector-curvature="0" /></g><g
       id="g5279"
       transform="matrix(0.23948256,-0.85614085,0.85614085,0.23948256,1276.2695,886.41117)"
       style="fill:#ffffff;fill-opacity:1"><path
         d="m 0,0 c 0,0 -10.943,17.194 -21.481,7.369 0,0 10.132,2.456 21.481,-7.369"
         style="fill:#ffffff;fill-opacity:1;fill-rule:evenodd;stroke:none"
         id="path5277"
         inkscape:connector-curvature="0" /></g><g
       id="g5283"
       transform="matrix(0.23948256,-0.85614085,0.85614085,0.23948256,1254.7314,800.36263)"><path
         d="m 0,0 c 0,0 -20.135,12.573 -25.505,-2.588 0,0 10.739,6.286 25.505,2.588"
         style="fill:#ffffff;fill-opacity:1;fill-rule:evenodd;stroke:none"
         id="path5281"
         inkscape:connector-curvature="0" /></g><g
       id="g5287"
       transform="matrix(0.23948256,-0.85614085,0.85614085,0.23948256,1175.9167,836.68584)"><path
         d="m 0,0 c 0,0 -32.744,-13.53 -20.668,-32.128 0,0 1.08,18.598 20.668,32.128"
         style="fill:#ffffff;fill-opacity:1;fill-rule:evenodd;stroke:none"
         id="path5285"
         inkscape:connector-curvature="0" /></g><g
       id="g5291"
       transform="matrix(0.23948256,-0.85614085,0.85614085,0.23948256,1080.3768,836.81529)"
       style="fill:#ffffff;fill-opacity:1"><path
         d="m 0,0 c 0,0 -17.694,-28.409 -1.011,-35.094 0,0 -7.33,14.762 1.011,35.094"
         style="fill:#ffffff;fill-opacity:1;fill-rule:evenodd;stroke:none"
         id="path5289"
         inkscape:connector-curvature="0" /></g><g
       id="g5295"
       transform="matrix(0.23948256,-0.85614085,0.85614085,0.23948256,1109.9543,680.47375)"><path
         d="m 0,0 c 0,0 -17.694,-28.409 -1.011,-35.094 0,0 -7.33,14.762 1.011,35.094"
         style="fill:#ffffff;fill-opacity:1;fill-rule:evenodd;stroke:none"
         id="path5293"
         inkscape:connector-curvature="0" /></g><g
       id="g5299"
       transform="matrix(0.23948256,-0.85614085,0.85614085,0.23948256,1165.3362,753.44597)"><path
         d="m 0,0 c 0,0 -18.93,-17.316 -4.822,-22.826 0,0 -5.357,6.69 4.822,22.826"
         style="fill:#ffffff;fill-opacity:1;fill-rule:evenodd;stroke:none"
         id="path5297"
         inkscape:connector-curvature="0" /></g><g
       id="g5303"
       transform="matrix(0.23948256,-0.85614085,0.85614085,0.23948256,988.59272,756.74047)"
       style="fill:#a277ff;fill-opacity:1"><path
         d="m 0,0 c 0,0 -3.099,-17.054 2.76,-24.361 0.606,-0.757 2.162,-2.283 2.965,-1.233 0.333,0.438 -0.02,1.436 -1.323,2.997 0,0 -5.032,5.468 -4.402,22.597"
         style="fill:#a277ff;fill-opacity:1;fill-rule:evenodd;stroke:none"
         id="path5301"
         inkscape:connector-curvature="0" /></g><g
       id="g5307"
       transform="matrix(0.23948256,-0.85614085,0.85614085,0.23948256,1050.9942,752.10089)"><path
         d="m 0,0 c 0,0 -7.016,-15.58 -3.083,-24.316 0.406,-0.903 1.549,-2.821 2.572,-2.038 0.425,0.326 0.319,1.393 -0.57,3.273 0,0 -3.569,6.722 1.081,23.081"
         style="fill:#ffffff;fill-opacity:1;fill-rule:evenodd;stroke:none"
         id="path5305"
         inkscape:connector-curvature="0" /></g><g
       id="g5311"
       transform="matrix(0.23948256,-0.85614085,0.85614085,0.23948256,1174.0478,450.09295)"><path
         d="M 0,0 C 0,0 5.642,17.718 -27.646,14.299 -27.646,14.299 -7.052,13.988 0,0"
         style="fill:#ffffff;fill-opacity:1;fill-rule:evenodd;stroke:none"
         id="path5309"
         inkscape:connector-curvature="0" /></g><g
       id="g5315"
       transform="matrix(0.23948256,-0.85614085,0.85614085,0.23948256,1220.3484,531.7931)"
       style="fill:#ffffff;fill-opacity:1"><path
         d="m 0,0 c 0,0 14.669,-3.108 9.027,-12.745 0,0 -10e-4,7.15 -9.027,12.745"
         style="fill:#ffffff;fill-opacity:1;fill-rule:evenodd;stroke:none"
         id="path5313"
         inkscape:connector-curvature="0" /></g><g
       id="g5319"
       transform="matrix(0.23948256,-0.85614085,0.85614085,0.23948256,1215.7888,590.15147)"><path
         d="M 0,0 C 0,0 2.821,16.474 -14.387,9.947 -14.387,9.947 -1.41,8.393 0,0"
         style="fill:#ffffff;fill-opacity:1;fill-rule:evenodd;stroke:none"
         id="path5317"
         inkscape:connector-curvature="0" /></g><g
       id="g5323"
       transform="matrix(0.23948256,-0.85614085,0.85614085,0.23948256,1091.7835,535.61608)"
       style="fill:#ffffff;fill-opacity:1"><path
         d="m 0,0 c 0,0 4.157,13.741 -12.175,16.032 0,0 9.502,-4.906 12.175,-16.032"
         style="fill:#ffffff;fill-opacity:1;fill-rule:evenodd;stroke:none"
         id="path5321"
         inkscape:connector-curvature="0" /></g><g
       id="g5327"
       transform="matrix(0.23948256,-0.85614085,0.85614085,0.23948256,1151.0176,608.92802)"><path
         d="m 0,0 c 0,0 3.563,-8.507 -0.595,-12.761 0,0 10.395,2.29 0.595,12.761"
         style="fill:#ffffff;fill-opacity:1;fill-rule:evenodd;stroke:none"
         id="path5325"
         inkscape:connector-curvature="0" /></g><g
       id="g5331"
       transform="matrix(0.23948256,-0.85614085,0.85614085,0.23948256,978.32071,497.40612)"
       style="fill:#ffffff;fill-opacity:1"><path
         d="m 0,0 c 0,0 22.96,-19.065 10.315,-27.133 0,0 2.33,9.167 -10.315,27.133"
         style="fill:#ffffff;fill-opacity:1;fill-rule:evenodd;stroke:none"
         id="path5329"
         inkscape:connector-curvature="0" /></g><g
       id="g5335"
       transform="matrix(0.23948256,-0.85614085,0.85614085,0.23948256,1042.3278,555.54501)"><path
         d="M 0,0 C 0,0 16.907,15.03 -16.658,31.03 -16.658,31.03 1.189,14.86 0,0"
         style="fill:#ffffff;fill-opacity:1;fill-rule:evenodd;stroke:none"
         id="path5333"
         inkscape:connector-curvature="0" /></g></g></svg>
