<?xml version="1.0" encoding="UTF-8" standalone="no"?>
<!-- Created with Inkscape (http://www.inkscape.org/) -->

<svg
   xmlns:dc="http://purl.org/dc/elements/1.1/"
   xmlns:cc="http://creativecommons.org/ns#"
   xmlns:rdf="http://www.w3.org/1999/02/22-rdf-syntax-ns#"
   xmlns:svg="http://www.w3.org/2000/svg"
   xmlns="http://www.w3.org/2000/svg"
   xmlns:sodipodi="http://sodipodi.sourceforge.net/DTD/sodipodi-0.dtd"
   xmlns:inkscape="http://www.inkscape.org/namespaces/inkscape"
   width="458.84299"
   height="481.32794"
   viewBox="0 0 121.4022 127.35135"
   version="1.1"
   id="svg865"
   inkscape:version="0.92.3 (2405546, 2018-03-11)"
   sodipodi:docname="bg-nosotros-mbsocialweb-diseno-grafico-malaga.svg">
  <defs
     id="defs859" />
  <sodipodi:namedview
     id="base"
     pagecolor="#ffffff"
     bordercolor="#666666"
     borderopacity="1.0"
     inkscape:pageopacity="0.0"
     inkscape:pageshadow="2"
     inkscape:zoom="1"
     inkscape:cx="104.08023"
     inkscape:cy="266.37832"
     inkscape:document-units="px"
     inkscape:current-layer="layer1"
     showgrid="false"
     showborder="false"
     units="px"
     fit-margin-top="0"
     fit-margin-left="0"
     fit-margin-right="0"
     fit-margin-bottom="0"
     inkscape:window-width="1366"
     inkscape:window-height="709"
     inkscape:window-x="0"
     inkscape:window-y="0"
     inkscape:window-maximized="1" />
  <metadata
     id="metadata862">
    <rdf:RDF>
      <cc:Work
         rdf:about="">
        <dc:format>image/svg+xml</dc:format>
        <dc:type
           rdf:resource="http://purl.org/dc/dcmitype/StillImage" />
        <dc:title></dc:title>
      </cc:Work>
    </rdf:RDF>
  </metadata>
  <g
     inkscape:label="Capa 1"
     inkscape:groupmode="layer"
     id="layer1"
     transform="translate(-42.108419,-70.794569)">
    <g
       id="g5421"
       transform="matrix(1.068531,0,0,0.99999998,-238.54182,224.15986)">
      <path
         sodipodi:nodetypes="cccccccccccccccc"
         inkscape:connector-curvature="0"
         id="path4501-3"
         d="m 344.49516,-57.837234 c 17.61362,-0.06711 31.83796,-14.40003 31.77113,-32.013655 -0.0676,-17.600921 -14.38116,-31.819611 -31.98214,-31.770221 9.40556,7.90539 14.85719,19.54816 14.9063,31.834631 0.0289,12.28262 -5.34533,23.956443 -14.6954,31.921347 z m -0.21103,-63.783876 -0.002,-0.001 -0.002,0.001 0.003,-3.9e-4 z m -0.003,3.9e-4 -0.0284,-10e-4 7e-5,0.0279 0.0283,-0.0265 z"
         style="opacity:1;fill:#6cb8ec;fill-opacity:0.99215686;stroke-width:0.22619061" />
      <path
         sodipodi:nodetypes="cccccccccccccccc"
         style="opacity:1;fill:#ff5959;fill-opacity:0.99215686;stroke-width:0.22619061"
         d="m 358.17859,-57.785304 c -0.0671,17.613622 -14.40003,31.837959 -32.01365,31.77113 -17.60092,-0.06762 -31.81961,-14.381158 -31.77022,-31.98214 7.90539,9.405557 19.54816,14.857186 31.83463,14.9063 12.28262,0.02887 23.95644,-5.345328 31.92134,-14.6954 z m -63.78387,-0.21103 -0.001,-0.002 0.001,-0.002 -3.9e-4,0.003 z m 3.9e-4,-0.003 -10e-4,-0.0284 0.0279,7e-5 -0.0265,0.0283 z"
         id="path4507-2"
         inkscape:connector-curvature="0" />
      <path
         sodipodi:nodetypes="cccccccccccccccc"
         style="opacity:1;fill:#e1f549;fill-opacity:1;stroke-width:0.22619061"
         d="m 294.4219,-57.999766 c -17.61362,-0.06711 -31.83796,-14.40003 -31.77113,-32.013655 0.0676,-17.600919 14.38116,-31.819609 31.98214,-31.770219 -9.40556,7.90539 -14.85719,19.54816 -14.9063,31.834629 -0.0289,12.28262 5.34533,23.956443 14.6954,31.921347 z m 0.21103,-63.783874 0.002,-10e-4 0.002,10e-4 -0.003,-3.9e-4 z m 0.003,3.9e-4 0.0284,-0.001 -7e-5,0.0279 -0.0283,-0.0265 z"
         id="path4509-7"
         inkscape:connector-curvature="0" />
      <path
         sodipodi:nodetypes="cccccccccccccccc"
         inkscape:connector-curvature="0"
         id="path4511-2"
         d="m 344.2807,-121.59393 c -0.0671,-17.61362 -14.40003,-31.83796 -32.01365,-31.77113 -17.60092,0.0676 -31.81961,14.38116 -31.77022,31.98214 7.90539,-9.40556 19.54816,-14.85719 31.83463,-14.9063 12.28262,-0.0289 23.95644,5.34533 31.92134,14.6954 z m -63.78387,0.21103 -10e-4,0.002 10e-4,0.002 -3.9e-4,-0.003 z m 3.9e-4,0.003 -0.001,0.0284 0.0279,-7e-5 -0.0265,-0.0283 z"
         style="opacity:1;fill:#29d0be;fill-opacity:1;stroke-width:0.22619061" />
      <circle
         r="3.7101765"
         cy="-98.673439"
         cx="334.27521"
         id="circle4513-1"
         style="opacity:1;fill:#e1f549;fill-opacity:1;stroke-width:0.16847046" />
      <circle
         style="opacity:1;fill:#6cb8ec;fill-opacity:0.99215686;stroke-width:0.38472447"
         id="circle4515-3"
         cx="325.26736"
         cy="-79.106285"
         r="8.4726763" />
      <circle
         r="5.8268433"
         cy="-102.91879"
         cx="310.97986"
         id="circle4517-4"
         style="opacity:1;fill:#ff5959;fill-opacity:0.99215686;stroke-width:0.26458335" />
      <circle
         style="opacity:1;fill:#29d0be;fill-opacity:1;stroke-width:0.16847046"
         id="circle4519-9"
         cx="304.64188"
         cy="-82.269272"
         r="3.7101765" />
    </g>
  </g>
</svg>
